<?xml version="1.0" encoding="UTF-8" standalone="no"?>

<svg
   width="64pt"
   height="64pt"
   viewBox="0 0 64 64"
   version="1.1"
   xml:space="preserve"
   xmlns="http://www.w3.org/2000/svg"
   xmlns:svg="http://www.w3.org/2000/svg">
   <g fill="white" stroke="none"
     transform="translate(-93.481842,-136.76981)"><path
       d="m 128.81958,139.13438 c 1.36898,1.23959 2.27189,3.85236 1.08654,5.43279 -0.69143,0.79021 -3.556,1.67921 -6.51932,1.97557 -16.79222,1.87675 -26.670002,20.05189 -18.96533,35.0661 2.76579,5.334 9.97654,11.557 15.40933,13.03865 8.98878,2.56825 19.36043,-0.29632 25.87978,-7.112 11.26065,-11.75454 8.98876,-31.90521 -4.54378,-40.49886 -2.46946,-1.48168 -3.95111,-2.76579 -3.35846,-2.76579 1.87678,0 9.18635,5.92665 12.05089,9.87779 5.53157,7.70465 6.51935,20.94086 2.17311,29.43575 -8.89,17.48368 -33.28811,21.336 -47.11697,7.40836 -5.92668,-5.8279 -8.692464,-12.54479 -8.692464,-21.03968 -0.19768,-14.02643 7.704674,-25.38589 20.644564,-29.83089 0,0 3.21146,-1.48014 4.93887,-1.67922 2.33363,-0.2688 5.27195,-0.8853 7.01324,0.69143 z"
   /></g>
</svg>
